<?xml version="1.0" encoding="UTF-8"?>
<svg version="1.1" xmlns="http://www.w3.org/2000/svg" width="800" height="600">
<path d="M0 0 C264 0 528 0 800 0 C800 198 800 396 800 600 C536 600 272 600 0 600 C0 402 0 204 0 0 Z " fill="#FEFEFE" transform="translate(0,0)"/>
<path d="M0 0 C1.59134766 -0.02126953 1.59134766 -0.02126953 3.21484375 -0.04296875 C6.0625 0.1875 6.0625 0.1875 9.0625 2.1875 C11.44927076 2.48202584 13.84876094 2.6803217 16.25 2.8125 C17.52230469 2.88726562 18.79460937 2.96203125 20.10546875 3.0390625 C21.08128906 3.08804687 22.05710937 3.13703125 23.0625 3.1875 C23.0625 4.5075 23.0625 5.8275 23.0625 7.1875 C20.4225 7.1875 17.7825 7.1875 15.0625 7.1875 C15.7225 8.1775 16.3825 9.1675 17.0625 10.1875 C17.70700787 14.50909488 18.00722568 19.08295484 16.1875 23.13671875 C13.30278369 26.90393052 9.61312111 29.12700743 5.0625 30.1875 C0.73430785 30.70384573 -3.58359949 30.99763065 -7.9375 31.1875 C-8.31968767 32.84364657 -8.65145102 34.51207024 -8.9375 36.1875 C-7.28178241 37.84321759 -5.29560759 37.33558012 -3.01953125 37.36328125 C-2.01212891 37.38712891 -1.00472656 37.41097656 0.03320312 37.43554688 C2.15800642 37.47812035 4.28306479 37.50958316 6.40820312 37.52929688 C12.54785748 37.69713231 16.41335464 38.0228034 21.0625 42.1875 C22.67402376 45.41054752 22.51324023 48.69263008 22.0625 52.1875 C19.05821623 58.57160301 13.84405791 61.39063391 7.703125 64.30859375 C1.44279305 66.39228412 -6.27179172 66.07990999 -12.5 63.9375 C-18.07821856 61.09767964 -18.07821856 61.09767964 -19.9375 58.1875 C-20.23272269 53.07030672 -18.61772098 50.47385641 -15.375 46.75 C-14.24281825 45.5494773 -13.10131004 44.35738738 -11.9375 43.1875 C-13.2575 42.5275 -14.5775 41.8675 -15.9375 41.1875 C-16.25 38.5 -16.25 38.5 -15.9375 35.1875 C-13.4375 32.3125 -13.4375 32.3125 -10.9375 30.1875 C-12.11044323 27.646123 -13.3349814 25.67311231 -15.0625 23.4375 C-17.37915525 19.42196423 -17.67146358 16.70907811 -16.9375 12.1875 C-14.11128235 4.17988334 -8.34876427 0.05059857 0 0 Z " fill="#151515" transform="translate(398.9375,283.8125)"/>
<path d="M0 0 C4.29520897 3.62125346 8.7962157 7.65480608 9.66796875 13.40625 C10.33835571 22.54671834 9.51940634 29.08507843 3.60546875 36.34375 C2.0703125 38.12109375 2.0703125 38.12109375 0.66796875 39.40625 C0.00796875 39.40625 -0.65203125 39.40625 -1.33203125 39.40625 C-1.33203125 40.06625 -1.33203125 40.72625 -1.33203125 41.40625 C-7.56986776 43.25670868 -14.60767823 43.29785644 -20.76953125 41.28125 C-25.79461709 37.60435792 -28.90277007 33.0813884 -31.33203125 27.40625 C-32.21706595 20.53327782 -32.41116898 13.24274967 -28.73828125 7.15625 C-21.67085266 -1.63877225 -10.58304181 -7.03860263 0 0 Z " fill="#181818" transform="translate(213.33203125,286.59375)"/>
<path d="M0 0 C5.49489106 3.95632156 9.15430996 9.06830756 10.26171875 15.80859375 C10.54712948 23.69306517 8.31238099 29.8294257 3.85546875 36.3359375 C-2.46178364 42.0505903 -7.195628 42.95222307 -15.6484375 42.85546875 C-21.03039174 42.05569231 -23.81072542 39.46750543 -27.14453125 35.3359375 C-27.68722656 34.68109375 -28.22992187 34.02625 -28.7890625 33.3515625 C-32.60597413 27.6756939 -31.7565514 19.85711773 -31.14453125 13.3359375 C-29.04354891 6.18506039 -25.57803936 1.96209661 -19.14453125 -1.6640625 C-12.48693226 -3.71871229 -6.09930597 -3.43314228 0 0 Z " fill="#F5F5F5" transform="translate(584.14453125,286.6640625)"/>
<path d="M0 0 C5.49489106 3.95632156 9.15430996 9.06830756 10.26171875 15.80859375 C10.54712948 23.69306517 8.31238099 29.8294257 3.85546875 36.3359375 C-2.46178364 42.0505903 -7.195628 42.95222307 -15.6484375 42.85546875 C-21.03039174 42.05569231 -23.81072542 39.46750543 -27.14453125 35.3359375 C-27.68722656 34.68109375 -28.22992188 34.02625 -28.7890625 33.3515625 C-32.60597413 27.6756939 -31.7565514 19.85711773 -31.14453125 13.3359375 C-29.04354891 6.18506039 -25.57803936 1.96209661 -19.14453125 -1.6640625 C-12.48693226 -3.71871229 -6.09930597 -3.43314228 0 0 Z " fill="#F6F6F6" transform="translate(536.14453125,286.6640625)"/>
<path d="M0 0 C0 2.64 0 5.28 0 8 C0.62648437 7.50628906 1.25296875 7.01257813 1.8984375 6.50390625 C2.71570313 5.86324219 3.53296875 5.22257812 4.375 4.5625 C5.18710938 3.92441406 5.99921875 3.28632813 6.8359375 2.62890625 C10.01882443 0.23312313 11.69788386 -0.11860166 15.625 -0.0625 C16.85089844 -0.04896484 16.85089844 -0.04896484 18.1015625 -0.03515625 C18.72804688 -0.02355469 19.35453125 -0.01195312 20 0 C20 0.66 20 1.32 20 2 C20.639375 2.2475 21.27875 2.495 21.9375 2.75 C24 4 24 4 24.62890625 6.078125 C24.81259766 7.02945312 24.81259766 7.02945312 25 8 C26.051875 7.13375 26.051875 7.13375 27.125 6.25 C35.84790011 -0.57661748 35.84790011 -0.57661748 40.3125 -0.75 C45.78172167 0.36238407 48.90969814 2.36454721 52 7 C52.30297852 10.24633789 52.30297852 10.24633789 52.37890625 14.22265625 C52.39590073 14.9239415 52.4128952 15.62522675 52.43040466 16.34776306 C52.48348681 18.58591747 52.52381081 20.82405414 52.5625 23.0625 C52.60644043 25.30442243 52.65314506 27.54620204 52.70530701 29.78794861 C52.75183064 31.81951968 52.78933408 33.8512913 52.82641602 35.88305664 C52.78803927 38.90673496 52.78803927 38.90673496 54 41 C56.52733235 41.65555119 56.52733235 41.65555119 59 42 C59 42.66 59 43.32 59 44 C51.74 44 44.48 44 37 44 C37 43.34 37 42.68 37 42 C39.31 41.67 41.62 41.34 44 41 C43.90655552 36.47895877 43.8004837 31.95845887 43.68261719 27.43798828 C43.64429699 25.89965979 43.60944944 24.36124075 43.578125 22.82275391 C43.53253941 20.61327724 43.4745366 18.40442552 43.4140625 16.1953125 C43.40251129 15.50567413 43.39096008 14.81603577 43.37905884 14.10549927 C43.35048978 10.1079846 43.35048978 10.1079846 41 7 C36.47455098 6.5474551 34.06475271 6.62496044 29.76171875 8.140625 C25.79022406 12.25255444 26.35752699 15.65503155 26.42382812 21.20703125 C26.46958984 22.49996094 26.51535156 23.79289062 26.5625 25.125 C26.59053711 27.07599609 26.59053711 27.07599609 26.61914062 29.06640625 C26.43555362 35.21777521 26.43555362 35.21777521 28 41 C31.02934491 41.65772428 31.02934491 41.65772428 34 42 C34 42.66 34 43.32 34 44 C26.41 44 18.82 44 11 44 C11 43.34 11 42.68 11 42 C11.969375 41.87625 12.93875 41.7525 13.9375 41.625 C14.948125 41.41875 15.95875 41.2125 17 41 C19.21727665 36.56544671 18.18499503 30.4946684 18.1875 25.625 C18.19974609 24.37976563 18.21199219 23.13453125 18.22460938 21.8515625 C18.22654297 20.6553125 18.22847656 19.4590625 18.23046875 18.2265625 C18.23457764 17.12908691 18.23868652 16.03161133 18.24291992 14.90087891 C18.00224338 12.02678979 17.58357701 10.38598304 16 8 C12.89046621 6.4452331 10.43733239 6.71355563 7 7 C3.70454111 8.48594551 3.70454111 8.48594551 1 11 C0.17604616 14.17408565 0.17604616 14.17408565 0.4140625 17.734375 C0.43339844 19.02988281 0.45273438 20.32539063 0.47265625 21.66015625 C0.522785 23.02346165 0.57357464 24.38674289 0.625 25.75 C0.65510869 27.12884865 0.68248297 28.5077599 0.70703125 29.88671875 C0.77778674 33.25939731 0.87648198 36.62890827 1 40 C2.98 40.66 4.96 41.32 7 42 C7 42.66 7 43.32 7 44 C0.07 44 -6.86 44 -14 44 C-14 43.34 -14 42.68 -14 42 C-12.35 41.34 -10.7 40.68 -9 40 C-9 29.11 -9 18.22 -9 7 C-10.65 6.67 -12.3 6.34 -14 6 C-10.44167106 1.60441719 -5.49342669 0 0 0 Z " fill="#131313" transform="translate(242,284)"/>
<path d="M0 0 C0.66 0 1.32 0 2 0 C2 7.26 2 14.52 2 22 C1.01 21.67 0.02 21.34 -1 21 C-1.46087554 19.02481911 -1.91856543 17.0487349 -2.34765625 15.06640625 C-3.65733869 10.91777146 -6.99237233 8.81170006 -10.25 6.1875 C-14.22350393 4.47166876 -17.74023788 4.33754151 -22 5 C-25.2071208 6.21524491 -25.2071208 6.21524491 -27 9 C-27.85138735 12.22792182 -28.12480112 14.84033139 -27 18 C-21.84225833 23.80357033 -14.68679767 27.17497325 -7.93945312 30.76757812 C-1.98229033 34.06758917 2.89418577 37.78837153 6 44 C6.85780282 49.9065851 6.10418839 54.34366244 2.5859375 59.203125 C-1.37742532 63.6936346 -4.60606141 65.75831651 -10.67578125 66.37109375 C-16.51639593 66.54821193 -21.60638581 66.4252536 -27 64 C-28.9924325 63.62406934 -30.9918674 63.28020455 -33 63 C-33.33 64.32 -33.66 65.64 -34 67 C-34.66 67 -35.32 67 -36 67 C-36 59.74 -36 52.48 -36 45 C-35.34 45 -34.68 45 -34 45 C-33.76925781 45.66386719 -33.53851563 46.32773437 -33.30078125 47.01171875 C-31.05266742 53.09850917 -28.94415723 57.65347608 -23.1484375 61.1015625 C-19.21644449 62.74585049 -15.17535199 62.55890538 -11 62 C-8.24539106 60.78002289 -6.14135764 59.14135764 -4 57 C-3.60631483 55.07530912 -3.60631483 55.07530912 -3.5 52.8125 C-3.4278125 52.05582031 -3.355625 51.29914063 -3.28125 50.51953125 C-5.02324417 44.41308428 -12.1426917 41.17369105 -17.36523438 38.25976562 C-18.83145629 37.46083759 -20.30022582 36.66656758 -21.77148438 35.87695312 C-28.22913369 32.25578704 -32.9361993 27.83044281 -36 21 C-36.86176468 16.51577317 -36.99063086 12.59984235 -34.5390625 8.640625 C-28.09971018 1.19597295 -28.09971018 1.19597295 -22.77734375 0.69921875 C-15.06316241 0.67567598 -8.26228842 1.1292601 -1 4 C-0.67 2.68 -0.34 1.36 0 0 Z " fill="#0F0F0F" transform="translate(490,263)"/>
<path d="M0 0 C2.74177636 0.87798456 5.23249356 0.88746444 8.0859375 0.66796875 C8.4159375 0.00796875 8.7459375 -0.65203125 9.0859375 -1.33203125 C9.7459375 -1.33203125 10.4059375 -1.33203125 11.0859375 -1.33203125 C11.97233139 1.32715041 12.26582775 3.14861516 12.40234375 5.8984375 C12.44423828 6.70087891 12.48613281 7.50332031 12.52929688 8.33007812 C12.56861328 9.16345703 12.60792969 9.99683594 12.6484375 10.85546875 C12.69162109 11.70044922 12.73480469 12.54542969 12.77929688 13.41601562 C12.88525268 15.49981308 12.9860877 17.58386978 13.0859375 19.66796875 C12.4259375 19.66796875 11.7659375 19.66796875 11.0859375 19.66796875 C10.85519531 19.07628906 10.62445313 18.48460937 10.38671875 17.875 C7.74445708 11.47299841 5.12475619 7.46645328 -0.9765625 3.85546875 C-6.74266124 1.67744455 -13.45926255 1.49174574 -19.2890625 3.4765625 C-24.74646005 6.46366078 -27.64133346 10.97151485 -29.9140625 16.66796875 C-31.22419907 21.3661018 -31.13391552 26.13810939 -31.1640625 30.98046875 C-31.1846875 31.79708984 -31.2053125 32.61371094 -31.2265625 33.45507812 C-31.27165588 40.52910252 -29.7681654 46.59567909 -25.6015625 52.48046875 C-25.05048828 53.29451172 -25.05048828 53.29451172 -24.48828125 54.125 C-20.07405617 58.45159778 -15.38464763 59.07937476 -9.4140625 59.04296875 C-8.145625 59.05070312 -6.8771875 59.0584375 -5.5703125 59.06640625 C1.01164838 58.34914128 4.68988956 55.42045301 9.0859375 50.66796875 C10.7734375 48.85546875 10.7734375 48.85546875 12.0859375 47.66796875 C12.7459375 47.66796875 13.4059375 47.66796875 14.0859375 47.66796875 C10.8745741 54.65190469 5.97483043 59.79989722 -1.01953125 62.9765625 C-9.36303067 66.02150971 -18.51519756 65.74719326 -26.59375 62.05859375 C-35.59598164 56.66331688 -40.06798965 48.47244853 -42.9140625 38.66796875 C-43.96393473 28.47444183 -43.0149386 19.39279178 -36.9609375 10.94140625 C-26.96165611 -0.91088883 -14.74879145 -5.51139049 0 0 Z " fill="#0F0F0F" transform="translate(160.9140625,265.33203125)"/>
<path d="M0 0 C0.33 2.31 0.66 4.62 1 7 C1.48210938 6.57847656 1.96421875 6.15695312 2.4609375 5.72265625 C3.09257813 5.17480469 3.72421875 4.62695312 4.375 4.0625 C5.31472656 3.24458984 5.31472656 3.24458984 6.2734375 2.41015625 C9.39371065 -0.13830214 11.9476584 -0.33957574 15.96484375 -0.28125 C19.22946589 0.16990699 20.81185064 1.61877864 23 4 C25.08482627 8.100902 25.23975565 11.56445804 25.23828125 16.12890625 C25.25369073 17.50717142 25.26999361 18.88542684 25.28710938 20.26367188 C25.30359423 22.41875868 25.31246526 24.57312643 25.30541992 26.72827148 C25.30279959 28.82096492 25.33089799 30.91150143 25.36328125 33.00390625 C25.36626221 34.24986572 25.36924316 35.4958252 25.37231445 36.77954102 C25.77714643 40.70586677 25.77714643 40.70586677 31 44 C24.4 44 17.8 44 11 44 C14 42 14 42 16 42 C16.04937279 37.33692986 16.08570627 32.67401127 16.10986328 28.01074219 C16.11993188 26.42380117 16.13358767 24.83687875 16.15087891 23.25 C16.17509001 20.97130753 16.18647422 18.69285994 16.1953125 16.4140625 C16.20563507 15.70255035 16.21595764 14.99103821 16.22659302 14.25796509 C16.22699422 12.50368335 16.12202209 10.75003291 16 9 C14.23235733 6.78043503 14.23235733 6.78043503 11.9765625 6.91796875 C11.20054687 7.00691406 10.42453125 7.09585937 9.625 7.1875 C8.85414063 7.26355469 8.08328125 7.33960938 7.2890625 7.41796875 C4.4414527 8.14201971 3.08876747 8.91448522 1 11 C0.44647806 14.09557858 0.44647806 14.09557858 0.609375 17.63671875 C0.62226562 18.93544922 0.63515625 20.23417969 0.6484375 21.57226562 C0.68185899 22.94402103 0.71571877 24.31576581 0.75 25.6875 C0.77006624 27.07093812 0.78831681 28.45440384 0.8046875 29.83789062 C0.85190793 33.22595649 0.91775931 36.61263241 1 40 C2.65 40.66 4.3 41.32 6 42 C6 42.66 6 43.32 6 44 C-0.6 44 -7.2 44 -14 44 C-11.525 41.525 -11.525 41.525 -9 39 C-8.31505567 35.52912109 -8.31505567 35.52912109 -8.51171875 31.73046875 C-8.51879349 31.04946609 -8.52586823 30.36846344 -8.53315735 29.66682434 C-8.56099931 27.50590005 -8.62370473 25.34763178 -8.6875 23.1875 C-8.71259668 21.71683448 -8.73540747 20.24612807 -8.75585938 18.77539062 C-8.81078812 15.18274043 -8.89698353 11.59162972 -9 8 C-11.97 7.505 -11.97 7.505 -15 7 C-14 4 -14 4 -11.85546875 2.83203125 C-10.97503906 2.49558594 -10.09460938 2.15914063 -9.1875 1.8125 C-8.31480469 1.46832031 -7.44210937 1.12414062 -6.54296875 0.76953125 C-4 0 -4 0 0 0 Z " fill="#101010" transform="translate(613,284)"/>
<path d="M0 0 C0 2.31 0 4.62 0 7 C0.556875 6.4946875 1.11375 5.989375 1.6875 5.46875 C8.7047748 -0.50541638 8.7047748 -0.50541638 13.1875 -0.6875 C17.45832098 0.08264804 19.71640365 1.18548885 23 4 C25.41110631 7.55614908 25.34337743 11.23370216 25.4140625 15.390625 C25.43342865 16.09523865 25.4527948 16.79985229 25.4727478 17.52581787 C25.53232735 19.76709039 25.57884123 22.00841489 25.625 24.25 C25.66319979 25.77345938 25.70225269 27.29689762 25.7421875 28.8203125 C25.83801018 32.54668106 25.92212107 36.27320835 26 40 C27.65 40.66 29.3 41.32 31 42 C31 42.66 31 43.32 31 44 C24.4 44 17.8 44 11 44 C12.65 42.68 14.3 41.36 16 40 C16.71980608 36.77187144 16.71980608 36.77187144 16.55859375 33.15234375 C16.55626236 32.49923721 16.55393097 31.84613068 16.55152893 31.17323303 C16.54181415 29.79723994 16.52007827 28.4212855 16.48706055 27.0456543 C16.43757384 24.94064104 16.42557467 22.83796482 16.41992188 20.73242188 C16.63504693 13.50091678 16.63504693 13.50091678 14 7 C9.215218 6.45092666 7.11220726 6.2262906 3.125 9 C2.42375 9.66 1.7225 10.32 1 11 C0.34 11 -0.32 11 -1 11 C-0.88182083 14.95121228 -0.75757767 18.90218229 -0.62768555 22.85302734 C-0.56301749 24.85894807 -0.50316894 26.86502228 -0.44335938 28.87109375 C-0.38051758 30.75634766 -0.38051758 30.75634766 -0.31640625 32.6796875 C-0.27974854 33.84226074 -0.24309082 35.00483398 -0.20532227 36.20263672 C-0.18178341 38.9535501 -0.18178341 38.9535501 1 41 C3.52733235 41.65555119 3.52733235 41.65555119 6 42 C6 42.66 6 43.32 6 44 C-0.93 44 -7.86 44 -15 44 C-15 43.34 -15 42.68 -15 42 C-14.195625 41.690625 -13.39125 41.38125 -12.5625 41.0625 C-10.10919595 40.23664655 -10.10919595 40.23664655 -9 39 C-8.91209025 36.70848583 -8.89305962 34.41427476 -8.90234375 32.12109375 C-8.90446617 31.09110008 -8.90446617 31.09110008 -8.90663147 30.04029846 C-8.91224521 27.83932199 -8.92479993 25.63844591 -8.9375 23.4375 C-8.94251324 21.94856917 -8.94707645 20.45963676 -8.95117188 18.97070312 C-8.96221907 15.31376925 -8.97949287 11.65689442 -9 8 C-10.98 7.34 -12.96 6.68 -15 6 C-11.31946413 1.45345569 -5.73670284 -0.52151844 0 0 Z " fill="#111111" transform="translate(344,284)"/>
<path d="M0 0 C3.74047466 0.23377967 4.86823917 0.5914244 8 2.875 C12.49117251 9.19071135 13.1666373 15.5017546 13.3125 23.125 C13.34988281 24.40246094 13.38726562 25.67992187 13.42578125 26.99609375 C12.92936655 31.29987259 11.72025606 33.35947502 9 36.6875 C5.24952518 39.18781654 3.44143734 39.22353554 -1 38.6875 C-5.68157618 34.96351895 -8.77736943 30.55041476 -10 24.6875 C-10.28338255 21.73242979 -10.32227185 18.77965658 -10.375 15.8125 C-10.43107422 14.62720703 -10.43107422 14.62720703 -10.48828125 13.41796875 C-10.54972162 9.31511754 -10.31664333 6.49282205 -7.7890625 3.16015625 C-4.84941771 0.55400057 -3.84358651 -0.11410647 0 0 Z " fill="#F8F8F8" transform="translate(201,287.3125)"/>
<path d="M0 0 C5.49489106 3.95632156 9.15430996 9.06830756 10.26171875 15.80859375 C10.54712948 23.69306517 8.31238099 29.8294257 3.85546875 36.3359375 C-2.46178364 42.0505903 -7.195628 42.95222307 -15.6484375 42.85546875 C-21.03039174 42.05569231 -23.81072542 39.46750543 -27.14453125 35.3359375 C-27.68722656 34.68109375 -28.22992188 34.02625 -28.7890625 33.3515625 C-32.60597413 27.6756939 -31.7565514 19.85711773 -31.14453125 13.3359375 C-29.04354891 6.18506039 -25.57803936 1.96209661 -19.14453125 -1.6640625 C-12.48693226 -3.71871229 -6.09930597 -3.43314228 0 0 Z M-22.14453125 6.3359375 C-24.82206518 14.36853929 -23.75205775 23.75401739 -20.14453125 31.3359375 C-18.00642617 35.01080561 -16.68238624 36.97736751 -13.14453125 39.3359375 C-9.07146589 39.78850032 -6.87841786 39.77626947 -3.33203125 37.6484375 C0.88659914 33.18874252 1.24443905 28.52890217 1.23046875 22.5859375 C1.22885742 21.87727539 1.22724609 21.16861328 1.22558594 20.43847656 C1.08944683 14.60585006 0.03991004 10.20167471 -3.14453125 5.3359375 C-3.68078125 4.4903125 -4.21703125 3.6446875 -4.76953125 2.7734375 C-11.13634187 -1.0801584 -17.86802026 0.40400291 -22.14453125 6.3359375 Z " fill="#131313" transform="translate(536.14453125,286.6640625)"/>
<path d="M0 0 C5.49489106 3.95632156 9.15430996 9.06830756 10.26171875 15.80859375 C10.54712948 23.69306517 8.31238099 29.8294257 3.85546875 36.3359375 C-2.46178364 42.0505903 -7.195628 42.95222307 -15.6484375 42.85546875 C-21.03039174 42.05569231 -23.81072542 39.46750543 -27.14453125 35.3359375 C-27.68722656 34.68109375 -28.22992187 34.02625 -28.7890625 33.3515625 C-32.60597413 27.6756939 -31.7565514 19.85711773 -31.14453125 13.3359375 C-29.04354891 6.18506039 -25.57803936 1.96209661 -19.14453125 -1.6640625 C-12.48693226 -3.71871229 -6.09930597 -3.43314228 0 0 Z M-21.14453125 5.3359375 C-24.6816859 10.98796434 -23.88875163 18.66372601 -22.609375 24.9765625 C-20.79411333 30.80920655 -18.3375482 35.8739262 -13.14453125 39.3359375 C-9.07146589 39.78850032 -6.87841786 39.77626947 -3.33203125 37.6484375 C1.86448865 32.15497361 1.34519607 25.41182412 1.16796875 18.30078125 C0.65005963 11.72980925 -1.20265877 6.8876006 -5.95703125 2.2734375 C-12.44381509 -1.66950954 -16.54769605 -0.44294104 -21.14453125 5.3359375 Z " fill="#131313" transform="translate(584.14453125,286.6640625)"/>
<path d="M0 0 C0.33 13.2 0.66 26.4 1 40 C2.65 40.66 4.3 41.32 6 42 C6 42.66 6 43.32 6 44 C-0.93 44 -7.86 44 -15 44 C-15 43.34 -15 42.68 -15 42 C-13.02 41.34 -11.04 40.68 -9 40 C-9 29.44 -9 18.88 -9 8 C-11.97 7.505 -11.97 7.505 -15 7 C-14 4 -14 4 -11.85546875 2.83203125 C-10.97503906 2.49558594 -10.09460938 2.15914063 -9.1875 1.8125 C-8.31480469 1.46832031 -7.44210937 1.12414062 -6.54296875 0.76953125 C-4 0 -4 0 0 0 Z " fill="#101010" transform="translate(319,284)"/>
<path d="M0 0 C2.28304899 0.0179485 4.52425196 0.11763285 6.796875 0.33203125 C6.796875 0.99203125 6.796875 1.65203125 6.796875 2.33203125 C7.415625 2.57953125 8.034375 2.82703125 8.671875 3.08203125 C11.18582716 4.56082664 11.6502801 5.7112429 12.796875 8.33203125 C13.456875 8.99203125 14.116875 9.65203125 14.796875 10.33203125 C14.466875 10.66203125 14.136875 10.99203125 13.796875 11.33203125 C13.69691406 13.38085322 13.66606554 15.43311694 13.6640625 17.484375 C13.66277344 18.73541016 13.66148437 19.98644531 13.66015625 21.27539062 C13.66595703 23.25249023 13.66595703 23.25249023 13.671875 25.26953125 C13.66800781 26.58373047 13.66414063 27.89792969 13.66015625 29.25195312 C13.66144531 30.50427734 13.66273438 31.75660156 13.6640625 33.046875 C13.66519043 34.2030835 13.66631836 35.35929199 13.66748047 36.55053711 C13.60664863 39.28921756 13.60664863 39.28921756 14.796875 41.33203125 C17.82621991 41.98975553 17.82621991 41.98975553 20.796875 42.33203125 C20.796875 42.99203125 20.796875 43.65203125 20.796875 44.33203125 C13.206875 44.33203125 5.616875 44.33203125 -2.203125 44.33203125 C-2.203125 43.67203125 -2.203125 43.01203125 -2.203125 42.33203125 C-1.23375 42.20828125 -0.264375 42.08453125 0.734375 41.95703125 C1.745 41.75078125 2.755625 41.54453125 3.796875 41.33203125 C6.01415165 36.89747796 4.98187003 30.82669965 4.984375 25.95703125 C4.99662109 24.71179688 5.00886719 23.4665625 5.02148438 22.18359375 C5.02341797 20.98734375 5.02535156 19.79109375 5.02734375 18.55859375 C5.03350708 16.91238037 5.03350708 16.91238037 5.03979492 15.23291016 C4.79911838 12.35882104 4.38045201 10.71801429 2.796875 8.33203125 C2.136875 8.00203125 1.476875 7.67203125 0.796875 7.33203125 C0.796875 6.67203125 0.796875 6.01203125 0.796875 5.33203125 C-1.183125 5.33203125 -3.163125 5.33203125 -5.203125 5.33203125 C-4.06475685 2.29638286 -3.36675282 0.50740069 0 0 Z " fill="#0C0C0C" transform="translate(255.203125,283.66796875)"/>
<path d="M0 0 C1.19947266 0.04576172 2.39894531 0.09152344 3.63476562 0.13867188 C4.88837891 0.20248047 6.14199219 0.26628906 7.43359375 0.33203125 C8.69107422 0.37650391 9.94855469 0.42097656 11.24414062 0.46679688 C20.60105719 0.87449469 20.60105719 0.87449469 22.87109375 3.14453125 C23.01018521 6.27408902 22.65578481 8.23182413 20.578125 10.6484375 C16.01174405 14.18662671 11.37967434 14.60459048 5.74609375 14.64453125 C4.7250354 14.65395752 4.7250354 14.65395752 3.68334961 14.66357422 C-1.08327119 14.54416234 -5.63409224 13.63934526 -9.12890625 10.14453125 C-9.59506044 3.85144971 -9.59506044 3.85144971 -7.99633789 1.42700195 C-5.27952646 -0.43878579 -3.26571949 -0.13290025 0 0 Z " fill="#F6F6F6" transform="translate(395.12890625,328.85546875)"/>
<path d="M0 0 C0 0.66 0 1.32 0 2 C-1.65002828 3.35386936 -3.3174387 4.68678142 -5 6 C-6.65847774 9.31695548 -6.22668502 12.98203371 -6.25 16.625 C-6.270625 17.40746094 -6.29125 18.18992187 -6.3125 18.99609375 C-6.35843718 25.92112295 -4.94773056 31.25026274 -0.875 37 C3.0956073 39.7621616 6.3091179 39.4598904 11 39 C10.67 40.32 10.34 41.64 10 43 C-3.11681173 43.57306459 -3.11681173 43.57306459 -8 40 C-13.4786554 34.26652342 -16.42858809 29.12789099 -16.4375 21.125 C-16.25570444 13.28300077 -14.5046735 8.94299136 -9.5 3.0625 C-6.12266599 0.27619944 -4.28268188 0 0 0 Z " fill="#121212" transform="translate(198,286)"/>
<path d="M0 0 C3.51286292 0.08303131 4.15446844 0.41219923 7.125 2.6875 C10.65144417 7.38942556 10.94298917 12.69180607 10.1875 18.4375 C8.95003153 21.14868091 7.30624878 23.31875122 5.1875 25.4375 C1.9375 25.875 1.9375 25.875 -1.8125 25.4375 C-6.65026288 20.81007463 -7.69368578 17.93259868 -8 11.5 C-7.92011271 5.37150342 -6.63590026 0.76149675 0 0 Z " fill="#F1F1F1" transform="translate(397.8125,286.5625)"/>
<path d="M0 0 C0 2.64 0 5.28 0 8 C0.66 8 1.32 8 2 8 C2 8.66 2 9.32 2 10 C1.34 10 0.68 10 0 10 C0.11817917 13.95121228 0.24242233 17.90218229 0.37231445 21.85302734 C0.43698251 23.85894807 0.49683106 25.86502228 0.55664062 27.87109375 C0.61948242 29.75634766 0.61948242 29.75634766 0.68359375 31.6796875 C0.72025146 32.84226074 0.75690918 34.00483398 0.79467773 35.20263672 C0.81821659 37.9535501 0.81821659 37.9535501 2 40 C4.52733235 40.65555119 4.52733235 40.65555119 7 41 C7 41.66 7 42.32 7 43 C0.07 43 -6.86 43 -14 43 C-14 42.34 -14 41.68 -14 41 C-13.195625 40.690625 -12.39125 40.38125 -11.5625 40.0625 C-9.10919595 39.23664655 -9.10919595 39.23664655 -8 38 C-7.91209025 35.70848583 -7.89305962 33.41427476 -7.90234375 31.12109375 C-7.90446617 30.09110008 -7.90446617 30.09110008 -7.90663147 29.04029846 C-7.91224521 26.83932199 -7.92479993 24.63844591 -7.9375 22.4375 C-7.94251324 20.94856917 -7.94707645 19.45963676 -7.95117188 17.97070312 C-7.96221907 14.31376925 -7.97949287 10.65689442 -8 7 C-9.98 6.34 -11.96 5.68 -14 5 C-10.05572558 0.43294541 -5.8595807 -0.27253864 0 0 Z " fill="#0A0A0A" transform="translate(343,285)"/>
<path d="M0 0 C0.6875 1.6875 0.6875 1.6875 1 4 C0.27876953 5.11568359 0.27876953 5.11568359 -0.45703125 6.25390625 C-3.51631177 11.69865107 -2.68347373 18.65692199 -1.4609375 24.63671875 C-0.77684834 26.85061169 0.02932513 28.89757758 1 31 C1.515625 32.134375 2.03125 33.26875 2.5625 34.4375 C6.1282153 38.18607249 9.99518815 38.44603228 15 39 C15 39.99 15 40.98 15 42 C2.95786699 43.06552581 2.95786699 43.06552581 -1.60546875 40.58203125 C-3.60858185 38.81944205 -5.3254253 37.07529157 -7 35 C-7.54269531 34.34515625 -8.08539063 33.6903125 -8.64453125 33.015625 C-12.45974813 27.34227656 -11.6174475 19.51828099 -11 13 C-9.37348763 7.55258574 -7.51307526 3.97065205 -2.6875 0.875 C-1.800625 0.58625 -0.91375 0.2975 0 0 Z " fill="#0E0E0E" transform="translate(516,287)"/>
<path d="M0 0 C0.6875 1.6875 0.6875 1.6875 1 4 C0.27876953 5.11568359 0.27876953 5.11568359 -0.45703125 6.25390625 C-3.51631177 11.69865107 -2.68347373 18.65692199 -1.4609375 24.63671875 C-0.77684834 26.85061169 0.02932513 28.89757758 1 31 C1.515625 32.134375 2.03125 33.26875 2.5625 34.4375 C6.1282153 38.18607249 9.99518815 38.44603228 15 39 C15 39.99 15 40.98 15 42 C2.95786699 43.06552581 2.95786699 43.06552581 -1.60546875 40.58203125 C-3.60858185 38.81944205 -5.3254253 37.07529157 -7 35 C-7.54269531 34.34515625 -8.08539062 33.6903125 -8.64453125 33.015625 C-11.39292544 28.92867572 -11.161694 24.8985448 -11.1875 20.0625 C-11.20167969 18.85722656 -11.21585938 17.65195312 -11.23046875 16.41015625 C-10.92922524 11.95277348 -10.21054316 9.25757858 -7.08984375 6.015625 C-6.37957031 5.43296875 -5.66929687 4.8503125 -4.9375 4.25 C-4.22464844 3.65703125 -3.51179687 3.0640625 -2.77734375 2.453125 C-1.89755859 1.73382813 -1.89755859 1.73382813 -1 1 C-0.67 0.67 -0.34 0.34 0 0 Z " fill="#0D0D0D" transform="translate(564,287)"/>
<path d="M0 0 C1.79158489 -0.02696365 3.58328473 -0.04637917 5.375 -0.0625 C6.37273437 -0.07410156 7.37046875 -0.08570313 8.3984375 -0.09765625 C11 0 11 0 13 1 C15.37123246 1.23029956 17.74741943 1.41119942 20.125 1.5625 C21.40632813 1.64628906 22.68765625 1.73007812 24.0078125 1.81640625 C25.48894531 1.90728516 25.48894531 1.90728516 27 2 C27 3.32 27 4.64 27 6 C24.36 6 21.72 6 19 6 C19.99 7.485 19.99 7.485 21 9 C21.64817054 13.34615406 22.00465176 17.9666809 20.01953125 21.984375 C17.80313339 24.73952803 15.38669707 26.94165716 12 28 C9.25 28.125 9.25 28.125 7 28 C7.3609375 27.52691406 7.721875 27.05382812 8.09375 26.56640625 C11.7635845 21.33689209 13.05967233 17.35803399 12 11 C10.83621298 6.89159751 9.66112023 4.44074682 6 2 C4.0103005 1.60986284 2.00980131 1.26797351 0 1 C0 0.67 0 0.34 0 0 Z " fill="#111111" transform="translate(395,285)"/>
<path d="M0 0 C1.09570312 0.00902344 2.19140625 0.01804687 3.3203125 0.02734375 C4.16335938 0.03894531 5.00640625 0.05054688 5.875 0.0625 C2.23381669 3.07008533 -0.45522524 3.45715883 -5.125 4.0625 C-8.22303639 7.16053639 -8.08940477 9.51967272 -8.375 13.875 C-8.31729427 19.02042794 -6.82708526 23.36041474 -3.125 27.0625 C-1.15809626 27.73542501 -1.15809626 27.73542501 1 28.1875 C2.918125 28.620625 2.918125 28.620625 4.875 29.0625 C4.875 29.3925 4.875 29.7225 4.875 30.0625 C3.95976562 30.11148437 3.04453125 30.16046875 2.1015625 30.2109375 C0.91304688 30.28570312 -0.27546875 30.36046875 -1.5 30.4375 C-2.68335938 30.50710938 -3.86671875 30.57671875 -5.0859375 30.6484375 C-8.23062319 30.76467346 -8.23062319 30.76467346 -10.125 33.0625 C-12.25 33.6875 -12.25 33.6875 -14.125 34.0625 C-13.135 32.7425 -12.145 31.4225 -11.125 30.0625 C-12.29794323 27.521123 -13.5224814 25.54811231 -15.25 23.3125 C-17.56665525 19.29696423 -17.85896358 16.58407811 -17.125 12.0625 C-14.24777745 3.91036943 -8.46085226 -0.09000907 0 0 Z " fill="#1A1A1A" transform="translate(399.125,283.9375)"/>
<path d="M0 0 C2.74177636 0.87798456 5.23249356 0.88746444 8.0859375 0.66796875 C8.4159375 0.00796875 8.7459375 -0.65203125 9.0859375 -1.33203125 C9.7459375 -1.33203125 10.4059375 -1.33203125 11.0859375 -1.33203125 C11.97233139 1.32715041 12.26582775 3.14861516 12.40234375 5.8984375 C12.44423828 6.70087891 12.48613281 7.50332031 12.52929688 8.33007812 C12.56861328 9.16345703 12.60792969 9.99683594 12.6484375 10.85546875 C12.69162109 11.70044922 12.73480469 12.54542969 12.77929688 13.41601562 C12.88525268 15.49981308 12.9860877 17.58386978 13.0859375 19.66796875 C12.4259375 19.66796875 11.7659375 19.66796875 11.0859375 19.66796875 C10.85519531 19.07628906 10.62445313 18.48460937 10.38671875 17.875 C7.76093378 11.51292021 5.13156463 7.54718549 -0.8515625 3.85546875 C-6.48409252 1.61754387 -12.97554137 2.44558308 -18.9140625 2.66796875 C-18.9140625 2.00796875 -18.9140625 1.34796875 -18.9140625 0.66796875 C-20.2340625 0.33796875 -21.5540625 0.00796875 -22.9140625 -0.33203125 C-14.67673277 -3.1362286 -8.15178859 -3.04619468 0 0 Z " fill="#090909" transform="translate(160.9140625,265.33203125)"/>
<path d="M0 0 C0.66 0 1.32 0 2 0 C2.23074219 0.66386719 2.46148437 1.32773437 2.69921875 2.01171875 C4.94172176 8.08331782 7.04020854 12.68734869 12.859375 16.0859375 C15.22098833 17.09436363 17.19821101 17.39984215 19.75 17.625 C20.54921875 17.69976562 21.3484375 17.77453125 22.171875 17.8515625 C22.77515625 17.90054687 23.3784375 17.94953125 24 18 C24 18.33 24 18.66 24 19 C22.02 19 20.04 19 18 19 C18 19.66 18 20.32 18 21 C12.86496656 20.35812082 8.0056546 19.31727753 3 18 C2.67 19.32 2.34 20.64 2 22 C1.34 22 0.68 22 0 22 C0 14.74 0 7.48 0 0 Z " fill="#212121" transform="translate(454,308)"/>
<path d="M0 0 C3.16013511 0.98073158 5.86803968 0.87760518 9.15234375 0.66796875 C9.15234375 1.32796875 9.15234375 1.98796875 9.15234375 2.66796875 C3.27437771 4.49216511 1.04061017 4.63072422 -4.84765625 2.66796875 C-8.50757459 2.42796129 -8.50757459 2.42796129 -12.22265625 2.54296875 C-14.09050781 2.57003906 -14.09050781 2.57003906 -15.99609375 2.59765625 C-16.93710938 2.62085938 -17.878125 2.6440625 -18.84765625 2.66796875 C-18.84765625 2.00796875 -18.84765625 1.34796875 -18.84765625 0.66796875 C-20.16765625 0.33796875 -21.48765625 0.00796875 -22.84765625 -0.33203125 C-14.62252027 -3.13207754 -8.13415458 -3.04494715 0 0 Z " fill="#1F1F1F" transform="translate(160.84765625,265.33203125)"/>
<path d="M0 0 C2 2 2 2 2.25 4.5 C2 7 2 7 0 9 C-3 9.25 -3 9.25 -6 9 C-6.66 8.34 -7.32 7.68 -8 7 C-7.75 3.4375 -7.75 3.4375 -7 0 C-4.29393021 -1.35303489 -2.8671629 -0.7884698 0 0 Z " fill="#151515" transform="translate(708,320)"/>
<path d="M0 0 C2 2 2 2 2.25 4.5 C2 7 2 7 0 9 C-3 9.25 -3 9.25 -6 9 C-6.66 8.34 -7.32 7.68 -8 7 C-7.75 3.4375 -7.75 3.4375 -7 0 C-4.29393021 -1.35303489 -2.8671629 -0.7884698 0 0 Z " fill="#151515" transform="translate(684,320)"/>
<path d="M0 0 C2 2 2 2 2.25 4.5 C2 7 2 7 0 9 C-3 9.25 -3 9.25 -6 9 C-6.66 8.34 -7.32 7.68 -8 7 C-7.75 3.4375 -7.75 3.4375 -7 0 C-4.29393021 -1.35303489 -2.8671629 -0.7884698 0 0 Z " fill="#151515" transform="translate(660,320)"/>
<path d="M0 0 C3.0625 0.1875 3.0625 0.1875 5.0625 2.1875 C5.1875 5.3125 5.1875 5.3125 5.0625 8.1875 C-1.34944487 9.51828101 -1.34944487 9.51828101 -3.9375 8.0625 C-4.9375 6.1875 -4.9375 6.1875 -4.6875 3.5625 C-3.63578571 0.23207143 -3.63578571 0.23207143 0 0 Z " fill="#212121" transform="translate(314.9375,261.8125)"/>
<path d="M0 0 C-2.77520655 6.11092279 -7.73243695 12.31390155 -14 15 C-14.66 14.67 -15.32 14.34 -16 14 C-17.87056791 13.7724985 -19.74685958 13.59037189 -21.625 13.4375 C-22.62789062 13.35371094 -23.63078125 13.26992188 -24.6640625 13.18359375 C-25.82035156 13.09271484 -25.82035156 13.09271484 -27 13 C-27 12.67 -27 12.34 -27 12 C-26.27554688 11.96261719 -25.55109375 11.92523438 -24.8046875 11.88671875 C-16.02532467 11.28972208 -11.09390084 9.58800091 -5 3 C-2.20689655 0 -2.20689655 0 0 0 Z " fill="#383838" transform="translate(175,313)"/>
<path d="M0 0 C0.33 2.31 0.66 4.62 1 7 C2.65 5.35 4.3 3.7 6 2 C6.66 2.33 7.32 2.66 8 3 C7.34 3.66 6.68 4.32 6 5 C6.66 5.66 7.32 6.32 8 7 C5.69631264 8.06652192 3.35981813 9.06421005 1 10 C0.34 9.67 -0.32 9.34 -1 9 C-1 6.36 -1 3.72 -1 1 C-2.98 1.33 -4.96 1.66 -7 2 C-4 0 -4 0 0 0 Z " fill="#414141" transform="translate(613,284)"/>
<path d="M0 0 C-0.33 0.99 -0.66 1.98 -1 3 C0.32 3.66 1.64 4.32 3 5 C1.741875 5.28875 0.48375 5.5775 -0.8125 5.875 C-3.8539399 6.57303539 -5.30669878 7.20446585 -8 9 C-8.66 8.34 -9.32 7.68 -10 7 C-8.71372289 5.82739389 -7.42080217 4.6620717 -6.125 3.5 C-5.04605469 2.52546875 -5.04605469 2.52546875 -3.9453125 1.53125 C-2 0 -2 0 0 0 Z " fill="#343434" transform="translate(278,285)"/>
<path d="M0 0 C1.65 0 3.3 0 5 0 C5 2.31 5 4.62 5 7 C6.98 5.35 8.96 3.7 11 2 C11.66 2.33 12.32 2.66 13 3 C11.15426347 6.50689941 9.87630016 8.74958059 6 10 C5.34 9.67 4.68 9.34 4 9 C4 6.36 4 3.72 4 1 C2.68 0.67 1.36 0.34 0 0 Z " fill="#484848" transform="translate(339,284)"/>
<path d="M0 0 C0.66 0.33 1.32 0.66 2 1 C1.34 1.66 0.68 2.32 0 3 C1.65 3.33 3.3 3.66 5 4 C5 4.33 5 4.66 5 5 C3.948125 5.103125 2.89625 5.20625 1.8125 5.3125 C-1.87430754 5.97733415 -3.96638599 6.88566296 -7 9 C-7.66 8.34 -8.32 7.68 -9 7 C-6.03 4.69 -3.06 2.38 0 0 Z " fill="#383838" transform="translate(251,285)"/>
<path d="M0 0 C-0.99 1.485 -0.99 1.485 -2 3 C-3.32 3 -4.64 3 -6 3 C-7.9792785 4.2832557 -7.9792785 4.2832557 -9.75 6 C-10.36359375 6.556875 -10.9771875 7.11375 -11.609375 7.6875 C-12.06828125 8.120625 -12.5271875 8.55375 -13 9 C-11.81817091 4.40399799 -9.5133843 2.51425189 -5.8515625 -0.1796875 C-3.50952707 -1.21729813 -2.36546493 -0.84406458 0 0 Z " fill="#303030" transform="translate(569,286)"/>
<path d="M0 0 C0.33 0 0.66 0 1 0 C1.33 5.94 1.66 11.88 2 18 C1.34 18 0.68 18 0 18 C-0.66 16.02 -1.32 14.04 -2 12 C-1.34 12 -0.68 12 0 12 C0 8.04 0 4.08 0 0 Z " fill="#393939" transform="translate(172,267)"/>
<path d="M0 0 C0 0.33 0 0.66 0 1 C-2.64 1.33 -5.28 1.66 -8 2 C-7.34 2.66 -6.68 3.32 -6 4 C-7.98 4.33 -9.96 4.66 -12 5 C-12 4.34 -12 3.68 -12 3 C-13.32 2.67 -14.64 2.34 -16 2 C-10.51324804 0.13216954 -5.77807024 -0.2358396 0 0 Z " fill="#454545" transform="translate(154,263)"/>
<path d="M0 0 C0.66 0 1.32 0 2 0 C2 7.26 2 14.52 2 22 C1.34 21.67 0.68 21.34 0 21 C0.495 12.09 0.495 12.09 1 3 C0.34 3 -0.32 3 -1 3 C-0.67 2.01 -0.34 1.02 0 0 Z " fill="#4E4E4E" transform="translate(490,263)"/>
<path d="M0 0 C0.99 0.33 1.98 0.66 3 1 C2.34 1.66 1.68 2.32 1 3 C0.60235737 4.98821313 0.26224651 6.98944339 0 9 C-0.66 7.68 -1.32 6.36 -2 5 C-3.32 5.99 -4.64 6.98 -6 8 C-4.55746343 4.63408134 -2.66735273 2.48952921 0 0 Z " fill="#323232" transform="translate(386,329)"/>
<path d="M0 0 C1.0828125 0.3403125 1.0828125 0.3403125 2.1875 0.6875 C4.18538438 1.03328768 6.18509451 1.36893549 8.1875 1.6875 C8.1875 2.0175 8.1875 2.3475 8.1875 2.6875 C6.90875 2.831875 5.63 2.97625 4.3125 3.125 C1.93057106 3.39392746 0.34297309 3.60976346 -1.8125 4.6875 C-2.1425 4.0275 -2.4725 3.3675 -2.8125 2.6875 C-3.4725 2.3575 -4.1325 2.0275 -4.8125 1.6875 C-1.8125 -0.3125 -1.8125 -0.3125 0 0 Z " fill="#515151" transform="translate(518.8125,285.3125)"/>
<path d="M0 0 C0.66 1.32 1.32 2.64 2 4 C0.35 5.32 -1.3 6.64 -3 8 C-3 7.34 -3 6.68 -3 6 C-3.99 5.67 -4.98 5.34 -6 5 C-5.195625 4.54625 -4.39125 4.0925 -3.5625 3.625 C-0.91143428 2.25274335 -0.91143428 2.25274335 0 0 Z " fill="#363636" transform="translate(417,336)"/>
<path d="M0 0 C1.65322266 0.01740234 1.65322266 0.01740234 3.33984375 0.03515625 C4.99693359 0.04869141 4.99693359 0.04869141 6.6875 0.0625 C7.54214844 0.07410156 8.39679688 0.08570313 9.27734375 0.09765625 C9.27734375 0.42765625 9.27734375 0.75765625 9.27734375 1.09765625 C8.601875 1.1234375 7.92640625 1.14921875 7.23046875 1.17578125 C1.51970443 1.44087353 1.51970443 1.44087353 -3.34765625 4.16015625 C-3.80140625 4.79953125 -4.25515625 5.43890625 -4.72265625 6.09765625 C-3.65171431 0.13097971 -3.65171431 0.13097971 0 0 Z " fill="#BFBFBF" transform="translate(393.72265625,313.90234375)"/>
<path d="M0 0 C0.66 0.33 1.32 0.66 2 1 C-0.64 3.64 -3.28 6.28 -6 9 C-6 5.06368636 -4.57142871 3.87394974 -2 1 C-1.34 0.67 -0.68 0.34 0 0 Z " fill="#C7C7C7" transform="translate(140,269)"/>
<path d="M0 0 C-1.32 0.33 -2.64 0.66 -4 1 C-4 1.66 -4 2.32 -4 3 C-3.34 3.33 -2.68 3.66 -2 4 C-3.98 4 -5.96 4 -8 4 C-7 1 -7 1 -4.5625 -0.25 C-2 -1 -2 -1 0 0 Z " fill="#5D5D5D" transform="translate(312,287)"/>
<path d="M0 0 C-1.28519565 2.86697492 -2.57129254 4.97607712 -5 7 C-5.66 7 -6.32 7 -7 7 C-3.86206897 0 -3.86206897 0 0 0 Z " fill="#2F2F2F" transform="translate(391,286)"/>
<path d="M0 0 C3.63 0 7.26 0 11 0 C11 0.66 11 1.32 11 2 C8.36 2.66 5.72 3.32 3 4 C2.01 2.68 1.02 1.36 0 0 Z " fill="#282828" transform="translate(159,266)"/>
<path d="M0 0 C3.3 0 6.6 0 10 0 C10 0.33 10 0.66 10 1 C8.02 1 6.04 1 4 1 C4 1.66 4 2.32 4 3 C2.68 3 1.36 3 0 3 C0 2.01 0 1.02 0 0 Z " fill="#181818" transform="translate(468,326)"/>
</svg>
